<svg width="25" height="25" viewBox="0 0 43 43" fill="none" xmlns="http://www.w3.org/2000/svg">
<path d="M0 16.125H43V25.5312H0V16.125Z" fill="#E6E7E8"/>
<path d="M36.2812 6.04688H6.71875C2.26623 6.04688 0 9.35586 0 13.4375V16.125H43V13.4375C43 9.35586 40.7338 6.04688 36.2812 6.04688Z" fill="#FF9933"/>
<path d="M0 28.2188C0 32.3004 2.26623 35.6094 6.71875 35.6094H36.2812C40.7338 35.6094 43 32.3004 43 28.2188V25.5312H0V28.2188Z" fill="#128807"/>
<path fill-rule="evenodd" clip-rule="evenodd" d="M21.7084 16.5167C22.5668 16.5167 23.406 16.7714 24.1197 17.2484C24.8333 17.7255 25.3895 18.4036 25.7177 19.1968C26.0459 19.99 26.1314 20.8628 25.9635 21.7047C25.7955 22.5465 25.3816 23.3196 24.7741 23.9262C24.1666 24.5327 23.3928 24.9454 22.5507 25.1121C21.7086 25.2788 20.836 25.1919 20.0432 24.8624C19.2505 24.533 18.5733 23.9758 18.0974 23.2614C17.6214 22.547 17.3681 21.7074 17.3694 20.849C17.3713 19.6994 17.8293 18.5976 18.6428 17.7854C19.4563 16.9732 20.5588 16.5169 21.7084 16.5167ZM18.8159 18.3946C18.8905 18.4793 18.904 18.57 18.8542 18.6459C18.8332 18.6809 18.8006 18.7074 18.7622 18.7211C18.7327 18.7321 18.7009 18.7358 18.6697 18.7318C18.6384 18.7278 18.6086 18.7163 18.5828 18.6983C18.466 18.8655 18.3633 19.0422 18.2757 19.2264C18.3772 19.2929 18.4108 19.3762 18.3772 19.4683C18.3592 19.5151 18.3237 19.5531 18.2782 19.5742C18.2326 19.5953 18.1807 19.5978 18.1333 19.5811C18.0849 19.6779 17.9781 20.0864 17.9768 20.1724C18.0213 20.1809 18.0613 20.205 18.0896 20.2403C18.1196 20.2753 18.135 20.3205 18.1326 20.3666C18.1199 20.4929 18.0419 20.5466 17.923 20.5513C17.9042 20.6729 17.9062 21.0801 17.925 21.1601C18.0513 21.1735 18.1179 21.2286 18.1286 21.3247C18.1434 21.4281 18.0937 21.4953 17.9727 21.5423C18.009 21.7419 18.0608 21.9381 18.1286 22.1302C18.176 22.1159 18.2267 22.1176 18.2731 22.1349C18.3181 22.1544 18.3537 22.188 18.3725 22.2344C18.3893 22.2707 18.3927 22.3083 18.3839 22.3479C18.3777 22.3774 18.3646 22.405 18.3458 22.4285C18.3271 22.4521 18.3031 22.471 18.2757 22.4836C18.3658 22.6704 18.4652 22.8465 18.5828 23.0117C18.6876 22.96 18.779 22.9721 18.8408 23.046C18.868 23.0764 18.8835 23.1154 18.8845 23.1562C18.8866 23.1863 18.8813 23.2165 18.8691 23.2441C18.8569 23.2717 18.8382 23.296 18.8146 23.3148C18.949 23.472 19.0921 23.6158 19.248 23.7481C19.336 23.6708 19.4273 23.6588 19.506 23.7138C19.5416 23.7387 19.5664 23.7716 19.5778 23.8119C19.586 23.8405 19.5878 23.8705 19.5829 23.8998C19.578 23.9291 19.5666 23.9569 19.5496 23.9813C19.7196 24.0982 19.895 24.1989 20.0784 24.2863C20.1496 24.1862 20.2309 24.1526 20.3189 24.1862C20.3573 24.1999 20.3905 24.225 20.4143 24.2581C20.4479 24.3118 20.4526 24.3709 20.4331 24.4341C20.6266 24.5026 20.8215 24.555 21.023 24.5906C21.0627 24.4771 21.1312 24.424 21.2226 24.4307C21.2649 24.4341 21.3032 24.4469 21.3368 24.4758C21.3838 24.5188 21.406 24.5732 21.402 24.6404C21.6089 24.6551 21.8112 24.6565 22.012 24.6404C22.0268 24.5107 22.0786 24.4455 22.1827 24.4307C22.2223 24.4253 22.2625 24.4333 22.2969 24.4536C22.3221 24.4678 22.3437 24.4875 22.3602 24.5113C22.3767 24.535 22.3877 24.5621 22.3923 24.5906C22.5952 24.553 22.7921 24.5013 22.9822 24.4334C22.9654 24.3064 22.9963 24.2305 23.0817 24.1909C23.1128 24.1775 23.1467 24.1722 23.1804 24.1754C23.2154 24.1781 23.247 24.1889 23.2725 24.2117C23.2973 24.2325 23.3182 24.2581 23.3424 24.2843C23.5255 24.1978 23.7012 24.0965 23.8678 23.9813C23.7992 23.8738 23.8395 23.771 23.8953 23.7253C23.9148 23.7086 23.9373 23.696 23.9617 23.6881C23.9861 23.6803 24.0118 23.6773 24.0373 23.6795C24.0628 23.6817 24.0877 23.689 24.1103 23.7009C24.133 23.7128 24.1531 23.729 24.1694 23.7488C24.3246 23.6158 24.4704 23.4713 24.6008 23.3161C24.5249 23.2294 24.5101 23.1381 24.5658 23.0594C24.5884 23.0242 24.623 22.9984 24.6633 22.9869C24.6919 22.9778 24.7223 22.9754 24.752 22.98C24.7817 22.9845 24.81 22.9958 24.8346 23.0131C24.9522 22.8438 25.0543 22.6684 25.1416 22.4843C25.0435 22.4185 25.0079 22.3412 25.0375 22.2532C25.0482 22.2141 25.0719 22.1797 25.1047 22.1558C25.1308 22.1376 25.1607 22.1256 25.1922 22.121C25.2237 22.1163 25.2558 22.119 25.2861 22.1289C25.3298 22.0342 25.4386 21.6351 25.4447 21.5383C25.3982 21.5299 25.3562 21.5051 25.3264 21.4684C25.3108 21.4503 25.299 21.4291 25.292 21.4062C25.2849 21.3833 25.2827 21.3592 25.2854 21.3354C25.288 21.2929 25.3056 21.2526 25.3351 21.2219C25.3554 21.2006 25.3801 21.1841 25.4075 21.1736C25.435 21.1631 25.4644 21.159 25.4937 21.1614C25.5105 20.9582 25.5105 20.7539 25.4937 20.5507C25.3654 20.5379 25.3042 20.4882 25.2874 20.3867C25.2799 20.3484 25.2856 20.3086 25.3036 20.2738C25.3174 20.247 25.3373 20.2237 25.3617 20.2059C25.386 20.1881 25.4142 20.1761 25.444 20.1711C25.4087 19.9703 25.3563 19.773 25.2874 19.5811C25.1631 19.602 25.0865 19.5684 25.0456 19.4824C25.0349 19.4594 25.029 19.4345 25.0281 19.4092C25.0271 19.3839 25.0313 19.3586 25.0402 19.3349C25.0492 19.3112 25.0627 19.2895 25.0802 19.2711C25.0976 19.2527 25.1185 19.238 25.1416 19.2277C25.0546 19.043 24.9519 18.8661 24.8346 18.699C24.7264 18.7507 24.6384 18.7386 24.5766 18.6647C24.5491 18.6335 24.5339 18.5934 24.5336 18.5518C24.5323 18.5223 24.538 18.4929 24.5501 18.4659C24.5623 18.439 24.5805 18.4153 24.6035 18.3966C24.4708 18.2413 24.3263 18.0964 24.1715 17.9633C24.0787 18.0426 23.9887 18.0526 23.9121 17.9975C23.8773 17.9743 23.8519 17.9396 23.8402 17.8994C23.8319 17.8713 23.83 17.8415 23.8349 17.8125C23.8398 17.7835 23.8513 17.756 23.8684 17.7321C23.701 17.6154 23.5241 17.5127 23.3397 17.4251C23.2705 17.5245 23.1925 17.5575 23.1045 17.5279C23.0655 17.5154 23.0314 17.491 23.0071 17.458C22.9894 17.4318 22.9781 17.4018 22.9741 17.3704C22.9701 17.339 22.9736 17.3071 22.9842 17.2773C22.7926 17.208 22.5952 17.1556 22.3943 17.1207C22.356 17.2296 22.2868 17.286 22.1975 17.2806C22.1557 17.2793 22.1156 17.2642 22.0833 17.2376C22.0593 17.2174 22.0406 17.1917 22.0288 17.1627C22.017 17.1337 22.0124 17.1022 22.0154 17.071C21.8124 17.0538 21.6083 17.054 21.4053 17.0717C21.3912 17.1926 21.3388 17.2618 21.2495 17.2766C21.2093 17.2852 21.1674 17.28 21.1305 17.2618C21.1031 17.2482 21.0792 17.2283 21.061 17.2036C21.0428 17.179 21.0307 17.1503 21.0257 17.1201C20.8249 17.1566 20.6274 17.2094 20.4352 17.278C20.4567 17.3969 20.4231 17.4748 20.3411 17.5171C20.3055 17.5353 20.2679 17.5427 20.2262 17.5353C20.1949 17.531 20.1652 17.5187 20.1402 17.4995C20.1151 17.4803 20.0954 17.4549 20.0831 17.4258C19.9682 17.4688 19.6027 17.6804 19.5543 17.7335C19.604 17.8329 19.5926 17.9209 19.5241 17.9841C19.5047 18.0012 19.4821 18.0142 19.4576 18.0224C19.4331 18.0306 19.4072 18.0338 19.3815 18.0318C19.3557 18.0298 19.3306 18.0227 19.3077 18.0108C19.2847 17.9989 19.2644 17.9825 19.248 17.9626C19.0929 18.0951 18.9485 18.2396 18.8159 18.3946Z" fill="#010088"/>
<path fill-rule="evenodd" clip-rule="evenodd" d="M23.5693 24.0713C23.5613 24.0625 23.5532 24.0565 23.5471 24.0471C23.1565 23.45 22.7648 22.8536 22.372 22.2579C22.3633 22.2411 22.3532 22.2243 22.3452 22.2055C22.2538 21.9925 22.1644 21.7795 22.071 21.5672C22.0679 21.5563 22.0636 21.5457 22.0583 21.5356C22.0206 21.5497 21.9864 21.5659 21.9461 21.5813L21.9595 21.6156C22.0435 21.8218 22.1241 22.0288 22.2094 22.235C22.2323 22.2901 22.2417 22.3479 22.2538 22.4057C22.3196 22.7141 22.3814 23.0238 22.448 23.3329L22.6751 24.4368C22.6762 24.4394 22.6766 24.4423 22.6762 24.4451C22.6759 24.4479 22.6748 24.4506 22.673 24.4529L22.6636 24.4294C22.4795 23.8657 22.2907 23.3027 22.106 22.739C22.069 22.6288 22.0361 22.5199 21.9958 22.4097C21.977 22.3546 21.9709 22.2982 21.9622 22.2411C21.9387 22.0812 21.9185 21.9199 21.8923 21.76C21.889 21.7217 21.8829 21.6841 21.8775 21.6472C21.8759 21.6318 21.8734 21.6166 21.8701 21.6015C21.8298 21.6055 21.7929 21.6109 21.7526 21.6156C21.7526 21.6317 21.7539 21.6485 21.7553 21.6653C21.7788 21.8622 21.7989 22.0597 21.8271 22.2559C21.8419 22.3634 21.8345 22.4689 21.8285 22.5764C21.8245 22.6671 21.8184 22.7578 21.8144 22.8491C21.8023 23.0332 21.7929 23.2167 21.7801 23.4001L21.76 23.779C21.7485 23.994 21.7351 24.2083 21.7237 24.422C21.7183 24.4825 21.717 24.5443 21.7109 24.6034L21.6948 24.3998L21.674 23.9591L21.6498 23.566C21.6431 23.4317 21.6343 23.298 21.6269 23.1636C21.6209 23.0756 21.6175 22.9875 21.6121 22.9009C21.6048 22.7618 21.596 22.6227 21.5893 22.485C21.5827 22.4116 21.5845 22.3376 21.5947 22.2646C21.6088 22.1652 21.6195 22.0637 21.6316 21.9629C21.6451 21.8635 21.6565 21.7634 21.6686 21.6653C21.6699 21.6498 21.6699 21.6337 21.6719 21.6156L21.5544 21.6001C21.551 21.627 21.545 21.6532 21.5403 21.6801C21.5123 21.8853 21.4837 22.0905 21.4543 22.2955C21.4462 22.3755 21.4146 22.4494 21.3877 22.5239C21.1808 23.1542 20.9732 23.7851 20.7636 24.4146C20.7589 24.426 20.7569 24.4368 20.7481 24.4475C20.7481 24.4395 20.7481 24.4334 20.7515 24.426C20.8381 24.0014 20.9255 23.5761 21.0155 23.1515C21.0733 22.8693 21.1331 22.5878 21.1902 22.3063L21.2063 22.2599C21.293 22.0469 21.3763 21.8319 21.465 21.6189C21.4681 21.6064 21.4726 21.5942 21.4784 21.5827C21.4414 21.5668 21.4043 21.5513 21.3669 21.5363C21.3622 21.5484 21.3548 21.5585 21.3508 21.5706C21.2581 21.7842 21.1674 21.9985 21.0746 22.2122C21.0689 22.2283 21.0617 22.2438 21.0531 22.2586C20.6567 22.8591 20.2614 23.4604 19.8673 24.0625C19.8619 24.0716 19.8548 24.0796 19.8465 24.0861C19.8498 24.0753 19.8559 24.0666 19.8599 24.0572L20.8314 22.1309C20.8398 22.1134 20.8502 22.097 20.8623 22.0819L21.2776 21.5249C21.2863 21.5155 21.2917 21.5067 21.2997 21.4967C21.2655 21.4718 21.2379 21.4489 21.2036 21.4227C21.1963 21.4315 21.1895 21.4389 21.1835 21.4476C21.0384 21.6297 20.8953 21.8131 20.7535 21.9945C20.7374 22.0113 20.7226 22.0288 20.7044 22.0442C20.175 22.5179 19.6456 22.9889 19.1141 23.4632C19.1034 23.472 19.0926 23.4814 19.0792 23.4874C19.0852 23.4814 19.0886 23.474 19.0926 23.4693C19.5287 22.9822 19.9614 22.4957 20.3954 22.0086C20.4202 21.9817 20.4451 21.9549 20.4686 21.926C20.5183 21.8682 20.5741 21.8171 20.6346 21.7714L21.117 21.3918C21.1277 21.3838 21.1358 21.375 21.1479 21.367C21.124 21.3348 21.0994 21.3032 21.074 21.2722C21.0632 21.279 21.0545 21.2857 21.0444 21.2931C20.8596 21.4315 20.6742 21.5685 20.4894 21.7076C20.4688 21.7232 20.4467 21.7369 20.4236 21.7486C19.7927 22.0671 19.1585 22.3855 18.5262 22.704C18.5141 22.7094 18.5027 22.7161 18.4886 22.7161L18.5141 22.698L19.6939 21.9253C19.8995 21.7903 20.1058 21.6552 20.3101 21.5195C20.3275 21.5094 20.3457 21.5007 20.3611 21.4926C20.5754 21.4019 20.7891 21.3105 21.0014 21.2192C21.0115 21.2151 21.0216 21.2111 21.0337 21.2051L20.9886 21.0942C20.9759 21.0976 20.9678 21.1009 20.9577 21.1043C20.7401 21.1909 20.5244 21.279 20.3054 21.365C20.2603 21.3818 20.2113 21.3898 20.1636 21.3999L18.6955 21.7049C18.5108 21.7446 18.3226 21.7835 18.1372 21.8218C18.1297 21.8236 18.1219 21.8227 18.115 21.8192C18.1661 21.803 18.2172 21.7849 18.2676 21.7681C18.9018 21.5591 19.5354 21.3509 20.1676 21.1406C20.2173 21.1238 20.2704 21.1191 20.3208 21.111C20.5251 21.0828 20.7286 21.0532 20.9309 21.0243C20.9433 21.0221 20.9556 21.0195 20.9678 21.0163C20.9638 20.9773 20.9577 20.9383 20.9544 20.898L20.8563 20.9088L20.4505 20.9578C20.3746 20.9679 20.2993 20.9759 20.2247 20.9854C20.2066 20.9874 20.1891 20.988 20.1716 20.9874L19.7443 20.9625L19.4917 20.9484L19.0563 20.9229L18.4214 20.8879C18.2682 20.8799 18.1191 20.8698 17.9666 20.859C17.9907 20.857 18.0176 20.853 18.0438 20.853L18.5645 20.8234L19.2525 20.7845L19.8223 20.7522L20.1797 20.7307C20.1938 20.73 20.2106 20.7321 20.2247 20.7334L20.6346 20.7824L20.9248 20.8174H20.9544C20.9577 20.7791 20.9638 20.7428 20.9678 20.7012C20.943 20.6958 20.9147 20.6917 20.8899 20.687C20.7105 20.6622 20.5324 20.636 20.3531 20.6098C20.3158 20.6055 20.2786 20.6006 20.2415 20.595C20.221 20.5922 20.2007 20.5875 20.1811 20.5809C19.6469 20.4055 19.1161 20.2288 18.5827 20.0535C18.4342 20.0048 18.2859 19.9555 18.1379 19.9057C18.1251 19.9023 18.113 19.8966 18.1023 19.8889L18.1957 19.9077L19.3358 20.1448C19.6409 20.2087 19.9506 20.2718 20.2556 20.3363C20.274 20.3404 20.292 20.346 20.3094 20.3531C20.5244 20.4378 20.7374 20.5251 20.9544 20.6111L20.9866 20.6239C21.0014 20.5869 21.0175 20.5513 21.0337 20.513C21.0227 20.5065 21.0113 20.5009 20.9994 20.4962C20.7857 20.4062 20.5728 20.3142 20.3598 20.2221C20.3431 20.215 20.3269 20.2067 20.3114 20.1972C19.7087 19.8029 19.1087 19.4064 18.5054 19.0114C18.4974 19.007 18.4911 19.0002 18.4873 18.9919L18.5114 19.0053C19.1121 19.3077 19.7134 19.61 20.3154 19.9117C20.4149 19.9614 20.5116 20.0212 20.6003 20.0891C20.7468 20.2026 20.8959 20.3115 21.0451 20.423C21.0552 20.4304 21.0639 20.4371 21.0746 20.4438L21.1486 20.3504L21.1223 20.3276L20.5761 19.8983C20.5573 19.8835 20.5425 19.868 20.5264 19.8519C20.0507 19.3191 19.5743 18.7856 19.1 18.2528C19.0931 18.2473 19.0878 18.2402 19.0846 18.232C19.0987 18.2334 19.104 18.2428 19.1101 18.2488C19.3983 18.5041 19.6839 18.7594 19.9701 19.0147L20.7105 19.6745C20.7239 19.6866 20.7367 19.7014 20.7488 19.7148L21.1727 20.2537C21.1835 20.2658 21.1916 20.2785 21.2036 20.2947L21.3011 20.2201C21.295 20.2107 21.287 20.2033 21.2823 20.1946C21.1439 20.0098 21.0061 19.8244 20.8664 19.6403C20.852 19.6186 20.8387 19.5962 20.8267 19.5731C20.5042 18.9382 20.1844 18.3005 19.8639 17.6649C19.8579 17.6529 19.8518 17.6434 19.8505 17.6307C19.8565 17.6374 19.8626 17.6434 19.8666 17.6495L20.5533 18.699L21.039 19.438C21.0558 19.4662 21.0746 19.4958 21.0854 19.5267C21.1761 19.7337 21.2634 19.9413 21.3515 20.1482C21.3575 20.1576 21.3615 20.1677 21.3676 20.1798L21.4791 20.1334L21.467 20.1052C21.383 19.8956 21.3011 19.6859 21.2157 19.4777C21.1922 19.4246 21.1835 19.3695 21.1721 19.3144C21.0988 18.9644 21.0283 18.6136 20.9551 18.2629C20.8832 17.9256 20.8146 17.591 20.7441 17.2524C20.7427 17.2504 20.7441 17.2477 20.7468 17.241L20.8059 17.4204C21.0169 18.054 21.2258 18.6889 21.4328 19.3238C21.4502 19.3735 21.4563 19.4279 21.4637 19.4797C21.4885 19.6557 21.5134 19.8331 21.5416 20.0105C21.5463 20.0441 21.5483 20.0777 21.555 20.1146L21.6719 20.0998V20.0555C21.6551 19.9151 21.637 19.774 21.6209 19.6342C21.6108 19.5522 21.6034 19.4723 21.592 19.3923C21.5853 19.3386 21.5853 19.2842 21.592 19.2304C21.5967 19.139 21.6034 19.0483 21.6074 18.9576L21.6404 18.4101C21.6464 18.312 21.6484 18.2125 21.6545 18.1144C21.6632 17.9868 21.6699 17.8571 21.6773 17.7288C21.6834 17.6347 21.6881 17.54 21.6921 17.4466C21.6975 17.3357 21.7062 17.2255 21.7156 17.1154C21.7183 17.1456 21.7196 17.1765 21.721 17.2087C21.7304 17.3438 21.7371 17.4788 21.7452 17.6146L21.7801 18.23L21.8009 18.5753C21.8117 18.7749 21.8211 18.9751 21.8325 19.1747C21.8359 19.2049 21.8372 19.2331 21.8392 19.2627C21.848 19.3406 21.8325 19.4179 21.8258 19.4951L21.7828 19.8472C21.7761 19.9137 21.766 19.9802 21.7579 20.0474C21.7566 20.0635 21.7566 20.081 21.7519 20.1005C21.7936 20.1065 21.8312 20.1106 21.8728 20.1159C21.8789 20.0871 21.8816 20.0602 21.8863 20.032C21.9185 19.8136 21.9494 19.5952 21.9803 19.3755C21.983 19.3594 21.9897 19.3426 21.9938 19.3258C22.2128 18.6687 22.4278 18.011 22.6455 17.3525C22.6562 17.3223 22.6643 17.2934 22.6811 17.2645C22.6793 17.2798 22.6768 17.2951 22.6737 17.3102C22.5756 17.7859 22.4735 18.2602 22.3761 18.7346C22.3324 18.957 22.286 19.18 22.2397 19.4024C22.2364 19.4209 22.2305 19.4387 22.2222 19.4555L21.9629 20.1039C21.9582 20.1133 21.9548 20.1233 21.9501 20.1354C21.9904 20.1509 22.0233 20.1663 22.0623 20.1818L22.0778 20.1495L22.3485 19.5133C22.3593 19.4918 22.3673 19.4709 22.3814 19.4535L23.5539 17.6649C23.5613 17.6555 23.5673 17.6461 23.5787 17.6394C23.574 17.6488 23.5707 17.6582 23.5646 17.6676L22.6005 19.5825C22.5904 19.6006 22.5803 19.6188 22.5682 19.6349C22.4285 19.821 22.2881 20.0071 22.1503 20.1919C22.1437 20.2025 22.1362 20.2126 22.1281 20.2221L22.2236 20.2967C22.2311 20.2887 22.2381 20.2801 22.2444 20.2712C22.3868 20.0897 22.5286 19.9077 22.673 19.7263C22.689 19.7059 22.7067 19.687 22.7261 19.6698C23.2569 19.1955 23.7883 18.7218 24.3198 18.2488C24.3285 18.2414 24.3346 18.234 24.3487 18.23L24.3312 18.2515C24.1142 18.4967 23.8972 18.7406 23.6768 18.9845C23.4148 19.2768 23.1561 19.5684 22.8961 19.8606C22.8827 19.8754 22.8665 19.8882 22.8524 19.9003L22.3062 20.3296L22.2793 20.3511C22.3049 20.3834 22.3277 20.4143 22.3546 20.4465L22.3835 20.425L22.9431 20.0058C22.9574 19.9956 22.9722 19.9862 22.9875 19.9775C23.6325 19.6537 24.2734 19.3312 24.9144 19.0074C24.9252 19.0027 24.9339 18.9986 24.9453 18.9986C24.9158 19.0181 24.8882 19.0369 24.8586 19.0551C24.2788 19.436 23.699 19.817 23.1171 20.1979C23.101 20.2073 23.0862 20.2167 23.0688 20.2241C22.8544 20.3168 22.6381 20.4082 22.4258 20.5003L22.3915 20.5137C22.4097 20.5513 22.4224 20.5869 22.4386 20.6246L22.4695 20.6145C22.6851 20.5292 22.8995 20.4398 23.1171 20.3572C23.1709 20.3357 23.23 20.3262 23.2885 20.3142L24.2781 20.1086C24.5859 20.0454 24.8909 19.9809 25.1993 19.9171C25.2275 19.911 25.2537 19.905 25.2833 19.8996C25.2907 19.8996 25.2974 19.8983 25.3081 19.9023L25.2141 19.9332C24.5576 20.1502 23.9032 20.3666 23.2468 20.5809C23.1971 20.5984 23.142 20.6031 23.0903 20.6111C22.9431 20.6333 22.798 20.6528 22.6549 20.6736C22.6025 20.681 22.5508 20.6891 22.4984 20.6958L22.4601 20.7025C22.4641 20.7421 22.4701 20.7791 22.4728 20.8221L22.5743 20.8113L22.9371 20.7683C23.0278 20.7569 23.1225 20.7442 23.2173 20.7354C23.2596 20.7321 23.3026 20.7361 23.3463 20.7381C23.4383 20.7421 23.5304 20.7502 23.6264 20.7542L24.1693 20.7865C24.2499 20.7912 24.3306 20.7945 24.4139 20.7999L24.9675 20.8315C25.0985 20.8396 25.2336 20.8456 25.3639 20.8537C25.3962 20.8555 25.4285 20.8584 25.4606 20.8624L25.3626 20.8705L24.9561 20.8926L24.4528 20.9222L24.0732 20.9424C23.8985 20.9531 23.7205 20.9632 23.5445 20.9746C23.4477 20.9786 23.3483 20.988 23.2508 20.9887C23.1951 20.9901 23.1366 20.9793 23.0822 20.9733C22.9628 20.9593 22.8434 20.9449 22.7241 20.9303L22.495 20.9027H22.4728C22.4701 20.9417 22.4641 20.98 22.4601 21.021C22.6969 21.056 22.9338 21.0903 23.1709 21.1238C23.2408 21.1325 23.3019 21.16 23.3678 21.1809L25.2786 21.8118C25.291 21.8144 25.3027 21.8196 25.3128 21.8272C25.2967 21.8245 25.2813 21.8218 25.2651 21.8205L23.6056 21.4745L23.1675 21.3831C23.1534 21.3791 23.1346 21.3737 23.1192 21.3663C22.9035 21.281 22.6871 21.1936 22.4701 21.107L22.4412 21.0969C22.4255 21.1337 22.4092 21.1702 22.3922 21.2064L22.4278 21.2232C22.6421 21.3146 22.8551 21.4053 23.0681 21.4973C23.0849 21.5047 23.1017 21.5134 23.1192 21.5255L24.9077 22.6973C24.9164 22.704 24.9278 22.7121 24.9352 22.7248C24.9265 22.7195 24.9164 22.7161 24.909 22.7107L23.9771 22.2431C23.652 22.0778 23.3241 21.9139 22.9955 21.7486C22.9746 21.7382 22.955 21.7254 22.9371 21.7103C22.7523 21.5726 22.5655 21.4342 22.3808 21.2951C22.3726 21.2881 22.3638 21.2818 22.3546 21.2763C22.329 21.3072 22.3062 21.3374 22.2793 21.3697L22.3049 21.3898C22.4849 21.5336 22.6683 21.6774 22.8491 21.8205C22.8696 21.8352 22.8884 21.8524 22.9048 21.8716L24.3285 23.4646C24.3343 23.4726 24.3389 23.4814 24.342 23.4908C24.3346 23.4827 24.3245 23.4773 24.3171 23.4713C23.783 22.9936 23.2482 22.5186 22.7127 22.0415C22.7005 22.0308 22.6897 22.0186 22.6804 22.0053L22.2451 21.4503C22.239 21.4416 22.2316 21.4335 22.2242 21.4248C22.1933 21.4503 22.1631 21.4731 22.1322 21.5C22.1349 21.5081 22.1409 21.5168 22.1463 21.5249L22.5689 22.0879C22.581 22.1043 22.5917 22.1216 22.6011 22.1396C22.9216 22.7752 23.2414 23.4122 23.5613 24.0484C23.5665 24.0571 23.5699 24.0667 23.5713 24.0767H23.5693V24.0713Z" fill="#010088"/>
<path fill-rule="evenodd" clip-rule="evenodd" d="M23.5627 24.0713C23.5695 24.078 23.5735 24.0854 23.5789 24.0914C23.5755 24.0928 23.5755 24.0948 23.5715 24.0955C23.5701 24.0861 23.5654 24.08 23.5641 24.0713H23.5627Z" fill="#010088"/>
</svg>
