<svg width="27" height="20" viewBox="0 0 27 20" fill="none" xmlns="http://www.w3.org/2000/svg">
<path fill-rule="evenodd" clip-rule="evenodd" d="M18.905 11.2213C20.5579 12.3433 21.716 13.8634 21.716 15.8903V19.5096H26.5418V15.8903C26.5418 13.2602 22.2348 11.7039 18.905 11.2213Z" fill="#919191"/>
<path d="M9.65171 9.85798C12.3169 9.85798 14.4775 7.6974 14.4775 5.0322C14.4775 2.367 12.3169 0.206421 9.65171 0.206421C6.9865 0.206421 4.82593 2.367 4.82593 5.0322C4.82593 7.6974 6.9865 9.85798 9.65171 9.85798Z" fill="#919191"/>
<path fill-rule="evenodd" clip-rule="evenodd" d="M16.8902 9.8581C19.5565 9.8581 21.716 7.69856 21.716 5.03232C21.716 2.36608 19.5565 0.206543 16.8902 0.206543C16.3232 0.206543 15.7924 0.327187 15.2857 0.496089C16.3238 1.78001 16.8902 3.38119 16.8902 5.03232C16.8902 6.68346 16.3238 8.28463 15.2857 9.56855C15.7924 9.73746 16.3232 9.8581 16.8902 9.8581ZM9.65156 11.0645C6.43035 11.0645 0 12.6812 0 15.8903V19.5097H19.3031V15.8903C19.3031 12.6812 12.8728 11.0645 9.65156 11.0645Z" fill="#919191"/>
</svg>
